<svg width="456" height="139" viewBox="0 0 456 139" fill="none" xmlns="http://www.w3.org/2000/svg">
<path d="M321.67 69.11H315.16C309.737 69.11 305.34 73.5066 305.34 78.93V127.84C305.34 133.263 309.737 137.66 315.16 137.66H321.67C327.093 137.66 331.49 133.263 331.49 127.84V78.93C331.49 73.5066 327.093 69.11 321.67 69.11Z" fill="#2696A7"/>
<path d="M455.71 51.52C455.71 44.2961 449.856 38.44 442.635 38.44C435.414 38.44 429.56 44.2961 429.56 51.52V92.55C429.56 99.7739 435.414 105.63 442.635 105.63C449.856 105.63 455.71 99.7739 455.71 92.55V51.52Z" fill="#2696A7"/>
<path d="M433.34 109.49C429.17 109.49 425.8 105.85 425.8 101.36V71.27C425.8 71.16 425.8 71.06 425.8 70.95C425.8 44.01 405.53 22.18 380.53 22.18C373.7 22.18 367.22 23.81 361.42 26.73C361.42 20.82 356.98 16.03 351.49 16.03H339.4C337.12 16.03 335.26 18.02 335.26 20.49V133.22C335.26 135.68 337.11 137.68 339.4 137.68H357.28C359.56 137.68 361.42 135.69 361.42 133.22V71.3C361.42 60.01 369.73 50.56 380.21 50.37C390.69 50.18 399.65 59.47 399.65 70.96V115.18C399.65 127.6 409 137.68 420.53 137.68H440.37C448.85 137.68 455.72 130.28 455.72 121.14V118.33C455.72 113.45 452.05 109.5 447.52 109.5H433.34V109.49Z" fill="#2696A7"/>
<path d="M318.42 28.74C325.644 28.74 331.5 22.4317 331.5 14.65C331.5 6.86831 325.644 0.559998 318.42 0.559998C311.196 0.559998 305.34 6.86831 305.34 14.65C305.34 22.4317 311.196 28.74 318.42 28.74Z" fill="#2696A7"/>
<path d="M331.5 58.71V44.11C331.5 40.36 328.68 37.32 325.2 37.32H287.99V4.76C287.99 2.44 286.24 0.559998 284.09 0.559998H265.74C263.58 0.559998 261.84 2.44 261.84 4.76V37.32H250.79C256.7 45.18 260.58 54.88 261.58 65.5H261.83V109.49C261.83 125.05 273.54 137.67 287.98 137.67H298.82C300.92 137.67 302.62 135.84 302.62 133.58V113.59C302.62 111.33 300.92 109.5 298.82 109.5H293.23C290.33 109.5 287.98 106.97 287.98 103.84V65.51H325.19C328.67 65.51 331.49 62.47 331.49 58.72L331.5 58.71Z" fill="#2696A7"/>
<path d="M257.47 70.95C257.47 44.01 237.2 22.18 212.2 22.18C205.37 22.18 198.89 23.81 193.09 26.73C193.09 20.82 188.65 16.03 183.16 16.03H170.2C168.4 16.03 166.94 17.6 166.94 19.54C175.66 27.79 179.99 41.08 176.37 54.4L166.94 89.08V129.66C166.94 134.08 170.27 137.67 174.37 137.67H185.66C189.76 137.67 193.09 134.08 193.09 129.66V71.29C193.09 60 201.4 50.55 211.88 50.36C222.59 50.17 231.32 59.46 231.32 70.95V129.66C231.32 134.08 234.65 137.67 238.75 137.67H250.04C254.14 137.67 257.47 134.08 257.47 129.66V71.27C257.47 71.16 257.47 71.06 257.47 70.95Z" fill="#2696A7"/>
<path d="M442.63 28.74C449.854 28.74 455.71 22.4317 455.71 14.65C455.71 6.86831 449.854 0.559998 442.63 0.559998C435.406 0.559998 429.55 6.86831 429.55 14.65C429.55 22.4317 435.406 28.74 442.63 28.74Z" fill="#2696A7"/>
<g style="mix-blend-mode:multiply" opacity="0.1">
<path d="M162.48 89.26L171.2 57.2C171.47 49.33 170.45 44.95 151.15 45.41H149.24L141.38 68.15L162.49 89.26H162.48Z" fill="url(#paint0_linear_21_615)"/>
</g>
<path d="M82.15 33.1C102.85 62.38 121.51 93.33 137.87 125.65C117.15 96.38 98.53 65.41 82.15 33.1Z" fill="#2696A7"/>
<path d="M104.77 18.14C124.79 46.63 142.77 76.79 158.44 108.29C138.4 79.81 120.46 49.63 104.77 18.14Z" fill="#2696A7"/>
<path d="M92.37 23.27C112.94 53.68 132.51 85.43 150.51 117.67C129.93 87.27 110.38 55.5 92.37 23.27Z" fill="#2696A7"/>
<path d="M81.03 32.38L103.32 14.55L98.2 6.71C95.49 2.55 90.16 1.55 86.3 4.48L78.01 10.76C74.29 13.58 73.27 19.03 75.69 23.18L81.04 32.38H81.03Z" fill="#2696A7"/>
<path d="M140.73 128.36L140.82 128.34C150.41 126.51 158.64 119.91 163.01 110.53L164.89 138.5L140.72 128.35L140.73 128.36Z" fill="#2696A7"/>
<path d="M86.89 97L96.62 68.85C97.16 67.29 96.97 65.56 96.11 64.18L82.43 42.19C80.17 38.56 75 39.41 73.86 43.61L62.55 85.21C62.26 93.08 63.23 97 86.9 97H86.89Z" fill="#C239B3"/>
<path style="mix-blend-mode:multiply" opacity="0.1" d="M72.08 50.14L62.54 85.21C62.25 93.08 63.22 97 86.89 97L95.12 73.18L72.08 50.14Z" fill="url(#paint1_linear_21_615)"/>
<path d="M92.08 126.64L125.12 125.78C128.91 125.68 131.09 121.1 128.97 117.72L117.34 99.26C116.45 97.85 114.97 97 113.38 97H86.9C63.24 97 62.26 93.08 62.55 85.21C56.83 106.23 71.76 127.17 92.08 126.64Z" fill="#3CB8BD"/>
<path d="M73.04 7.64L82.39 0.559998H7.69C3.91 0.559998 0.839996 3.86 0.839996 7.94V21.37C0.839996 25.44 3.91 28.75 7.69 28.75H32.47V114.04C32.47 121.01 37.71 126.66 44.18 126.66H46.92C53.39 126.66 58.63 121.01 58.63 114.04V28.75H71.4L69.66 25.75C66.14 19.71 67.63 11.75 73.05 7.65L73.04 7.64Z" fill="#2696A7"/>
<path d="M146.38 16.72L115.12 17.73C111.64 17.83 109.63 22.41 111.58 25.79L123.16 44.1C123.98 45.51 125.34 46.36 126.8 46.36H151.14C170.45 45.9 171.46 50.28 171.19 58.15C178.47 37.43 165.05 16.19 146.37 16.72H146.38Z" fill="#3CB8BD"/>
<defs>
<linearGradient id="paint0_linear_21_615" x1="164.87" y1="49.32" x2="154.14" y2="70.76" gradientUnits="userSpaceOnUse">
<stop/>
<stop offset="0.61" stop-color="white"/>
</linearGradient>
<linearGradient id="paint1_linear_21_615" x1="88.13" y1="-86" x2="69.24" y2="108" gradientUnits="userSpaceOnUse">
<stop offset="0.62" stop-color="white"/>
<stop offset="0.8"/>
</linearGradient>
</defs>
</svg>
