<svg width="456" height="139" viewBox="0 0 456 139" fill="none" xmlns="http://www.w3.org/2000/svg">
<g style="mix-blend-mode:multiply" opacity="0.15">
<path d="M162.48 89.54L171.2 57.48C171.47 49.61 170.45 45.23 151.15 45.69H149.24L141.38 68.43L162.49 89.54H162.48Z" fill="url(#paint0_linear_21_616)"/>
</g>
<path d="M82.15 33.38C102.85 62.66 121.51 93.61 137.87 125.93C117.15 96.66 98.53 65.69 82.15 33.38Z" fill="white"/>
<path d="M104.77 18.41C124.79 46.9 142.77 77.06 158.44 108.56C138.4 80.08 120.46 49.9 104.77 18.41Z" fill="white"/>
<path d="M92.37 23.55C112.94 53.96 132.51 85.71 150.51 117.95C129.93 87.55 110.38 55.78 92.37 23.55Z" fill="white"/>
<path d="M81.03 32.66L103.32 14.83L98.2 6.98998C95.49 2.82998 90.16 1.83 86.3 4.76L78.01 11.04C74.29 13.86 73.27 19.31 75.69 23.46L81.04 32.66H81.03Z" fill="white"/>
<path d="M140.73 128.64L140.82 128.62C150.41 126.79 158.64 120.19 163.01 110.81L164.89 138.78L140.72 128.63L140.73 128.64Z" fill="white"/>
<path d="M321.67 69.39H315.16C309.737 69.39 305.34 73.7866 305.34 79.21V128.12C305.34 133.543 309.737 137.94 315.16 137.94H321.67C327.093 137.94 331.49 133.543 331.49 128.12V79.21C331.49 73.7866 327.093 69.39 321.67 69.39Z" fill="white"/>
<path d="M455.71 51.8C455.71 44.5761 449.856 38.72 442.635 38.72C435.414 38.72 429.56 44.5761 429.56 51.8V92.83C429.56 100.054 435.414 105.91 442.635 105.91C449.856 105.91 455.71 100.054 455.71 92.83V51.8Z" fill="white"/>
<path d="M433.34 109.76C429.17 109.76 425.8 106.12 425.8 101.63V71.54C425.8 71.43 425.8 71.33 425.8 71.22C425.8 44.28 405.53 22.45 380.53 22.45C373.7 22.45 367.22 24.08 361.42 27C361.42 21.09 356.98 16.3 351.49 16.3H339.4C337.12 16.3 335.26 18.29 335.26 20.76V133.49C335.26 135.95 337.11 137.95 339.4 137.95H357.28C359.56 137.95 361.42 135.96 361.42 133.49V71.57C361.42 60.28 369.73 50.83 380.21 50.64C390.69 50.45 399.65 59.74 399.65 71.23V115.45C399.65 127.87 409 137.95 420.53 137.95H440.37C448.85 137.95 455.72 130.55 455.72 121.41V118.6C455.72 113.72 452.05 109.77 447.52 109.77H433.34V109.76Z" fill="white"/>
<path d="M318.42 29.02C325.644 29.02 331.5 22.7117 331.5 14.93C331.5 7.1483 325.644 0.839996 318.42 0.839996C311.196 0.839996 305.34 7.1483 305.34 14.93C305.34 22.7117 311.196 29.02 318.42 29.02Z" fill="white"/>
<path d="M331.5 58.99V44.39C331.5 40.64 328.68 37.6 325.2 37.6H287.99V5.04001C287.99 2.72001 286.24 0.839996 284.09 0.839996H265.74C263.58 0.839996 261.84 2.72001 261.84 5.04001V37.6H250.79C256.7 45.46 260.58 55.16 261.58 65.78H261.83V109.77C261.83 125.33 273.54 137.95 287.98 137.95H298.82C300.92 137.95 302.62 136.12 302.62 133.86V113.87C302.62 111.61 300.92 109.78 298.82 109.78H293.23C290.33 109.78 287.98 107.25 287.98 104.12V65.79H325.19C328.67 65.79 331.49 62.75 331.49 59L331.5 58.99Z" fill="white"/>
<path d="M257.47 71.23C257.47 44.29 237.2 22.46 212.2 22.46C205.37 22.46 198.89 24.09 193.09 27.01C193.09 21.1 188.65 16.31 183.16 16.31H170.2C168.4 16.31 166.94 17.88 166.94 19.82C175.66 28.07 179.99 41.36 176.37 54.68L166.94 89.36V129.94C166.94 134.36 170.27 137.95 174.37 137.95H185.66C189.76 137.95 193.09 134.36 193.09 129.94V71.57C193.09 60.28 201.4 50.83 211.88 50.64C222.59 50.45 231.32 59.74 231.32 71.23V129.94C231.32 134.36 234.65 137.95 238.75 137.95H250.04C254.14 137.95 257.47 134.36 257.47 129.94V71.55C257.47 71.44 257.47 71.34 257.47 71.23Z" fill="white"/>
<path d="M442.63 29.02C449.854 29.02 455.71 22.7117 455.71 14.93C455.71 7.1483 449.854 0.839996 442.63 0.839996C435.406 0.839996 429.55 7.1483 429.55 14.93C429.55 22.7117 435.406 29.02 442.63 29.02Z" fill="white"/>
<path d="M86.89 97.27L96.62 69.12C97.16 67.56 96.97 65.83 96.11 64.45L82.43 42.46C80.17 38.83 75 39.68 73.86 43.88L62.55 85.48C62.26 93.35 63.23 97.27 86.9 97.27H86.89Z" fill="#E19AD8"/>
<path style="mix-blend-mode:multiply" opacity="0.15" d="M72.08 50.42L62.54 85.49C62.25 93.36 63.22 97.28 86.89 97.28L95.12 73.46L72.08 50.42Z" fill="url(#paint1_linear_21_616)"/>
<path d="M92.08 126.92L125.12 126.06C128.91 125.96 131.09 121.38 128.97 118L117.34 99.54C116.45 98.13 114.97 97.28 113.38 97.28H86.9C63.24 97.28 62.26 93.36 62.55 85.49C56.83 106.51 71.76 127.45 92.08 126.92Z" fill="#A9E0E2"/>
<path d="M73.04 7.92001L82.39 0.839996H7.69C3.91 0.839996 0.839996 4.14 0.839996 8.22V21.65C0.839996 25.72 3.91 29.03 7.69 29.03H32.47V114.32C32.47 121.29 37.71 126.94 44.18 126.94H46.92C53.39 126.94 58.63 121.29 58.63 114.32V29.03H71.4L69.66 26.03C66.14 19.99 67.63 12.03 73.05 7.92999L73.04 7.92001Z" fill="white"/>
<path d="M146.38 17L115.12 18.01C111.64 18.11 109.63 22.69 111.58 26.07L123.16 44.38C123.98 45.79 125.34 46.64 126.8 46.64H151.14C170.45 46.18 171.46 50.56 171.19 58.43C178.47 37.71 165.05 16.47 146.37 17H146.38Z" fill="#A9E0E2"/>
<defs>
<linearGradient id="paint0_linear_21_616" x1="164.87" y1="49.6" x2="154.14" y2="71.04" gradientUnits="userSpaceOnUse">
<stop/>
<stop offset="0.61" stop-color="white"/>
</linearGradient>
<linearGradient id="paint1_linear_21_616" x1="88.13" y1="47.32" x2="69.24" y2="108.28" gradientUnits="userSpaceOnUse">
<stop offset="0.62" stop-color="white"/>
<stop offset="0.8"/>
</linearGradient>
</defs>
</svg>
