<svg width="1350" height="634" viewBox="0 0 1350 634" fill="none" xmlns="http://www.w3.org/2000/svg" preserveAspectRatio="none">
    <g clip-path="url(#clip0_13_599)">
        <path d="M0 364.6L6.04 376.89L33.71 433.16C44.45 454.99 63.37 471.71 86.36 479.66L513.33 627.36C545.27 638.41 580.57 633.49 608.27 614.14L1284.81 141.47C1325.36 113.14 1349.52 66.79 1349.52 17.32V0H0" fill="url(#paint0_linear_13_599)"/>
        <path style="mix-blend-mode:overlay" d="M0 364.6L6.04 376.89L33.71 433.16C44.45 454.99 63.37 471.71 86.36 479.66L513.33 627.36C545.27 638.41 580.57 633.49 608.27 614.14L675.64 567.07C359.84 447.35 206.99 200.82 141.71 0H0V364.6Z" fill="url(#paint1_linear_13_599)"/>
        <path style="mix-blend-mode:overlay" d="M1349.53 17.3V0H652.68C798.31 41.37 960.67 124.27 1090.56 277.17L1284.81 141.45C1325.36 113.12 1349.52 66.77 1349.52 17.3H1349.53Z" fill="url(#paint2_linear_13_599)"/>
        <g style="mix-blend-mode:overlay">
            <path d="M800.84 188.596H792.1L754.42 297.626C752.19 304.086 752.98 311.316 756.54 317.036L813.38 408.366C822.77 423.466 844.25 419.896 848.99 402.456L892.49 242.456C893.71 206.486 889.06 186.486 800.84 188.576V188.596Z" fill="url(#paint3_linear_13_599)"/>
            <path d="M509.47 424.84L562.07 285.84C564.53 278.73 563.66 270.78 559.74 264.48L497.22 164.01C486.89 147.4 463.26 151.32 458.05 170.51L406.36 360.62C405.03 396.59 409.47 414.5 517.62 414.5L509.47 424.84Z" fill="url(#paint4_linear_13_599)" style="mix-blend-mode:overlay"/>
            <path d="M533.18 560.3L684.16 556.37C701.48 555.92 711.46 535 701.74 519.56L648.59 435.18C644.52 428.71 637.74 424.84 630.48 424.84H509.47C401.32 424.84 396.88 406.93 398.21 370.96C372.09 467.04 440.29 562.72 533.18 560.3Z" fill="url(#paint5_linear_13_599)" style="mix-blend-mode:overlay"/>
            <path d="M789.48 47.64L646.64 52.26C630.72 52.71 621.54 73.63 630.48 89.07L683.39 172.76C687.13 179.23 693.37 183.1 700.03 183.1H811.26C899.48 181 904.13 201.01 902.91 236.98C936.18 142.29 874.85 45.22 789.47 47.64H789.48Z" fill="url(#paint6_linear_13_599)" style="mix-blend-mode:overlay"/>
        </g>
    </g>
    <defs>
        <linearGradient id="paint0_linear_13_599" x1="1112.43" y1="468.55" x2="75.22" y2="-130.29" gradientUnits="userSpaceOnUse">
            <stop stop-color="#4DD3CD"/>
            <stop offset="0.54" stop-color="#2695A6"/>
            <stop offset="1" stop-color="#266EA6"/>
        </linearGradient>
        <linearGradient id="paint1_linear_13_599" x1="337.83" y1="0" x2="337.83" y2="633.15" gradientUnits="userSpaceOnUse">
            <stop stop-color="white" stop-opacity="0.3"/>
            <stop offset="1" stop-color="white" stop-opacity="0"/>
        </linearGradient>
        <linearGradient id="paint2_linear_13_599" x1="1001.11" y1="0" x2="1001.11" y2="277.17" gradientUnits="userSpaceOnUse">
            <stop stop-color="white" stop-opacity="0.3"/>
            <stop offset="1" stop-color="white" stop-opacity="0"/>
        </linearGradient>
        <linearGradient id="paint3_linear_13_599" x1="652.338" y1="47.6381" x2="652.338" y2="560.379" gradientUnits="userSpaceOnUse">
            <stop stop-color="white" stop-opacity="0.3"/>
            <stop offset="1" stop-color="white" stop-opacity="0"/>
        </linearGradient>
        <linearGradient id="paint4_linear_13_599" x1="652.338" y1="47.6101" x2="652.338" y2="560.345" gradientUnits="userSpaceOnUse">
            <stop stop-color="white" stop-opacity="0.3"/>
            <stop offset="1" stop-color="white" stop-opacity="0"/>
        </linearGradient>
        <linearGradient id="paint5_linear_13_599" x1="652.355" y1="47.5957" x2="652.355" y2="560.359" gradientUnits="userSpaceOnUse">
            <stop stop-color="white" stop-opacity="0.3"/>
            <stop offset="1" stop-color="white" stop-opacity="0"/>
        </linearGradient>
        <linearGradient id="paint6_linear_13_599" x1="769.55" y1="47.6" x2="769.55" y2="236.98" gradientUnits="userSpaceOnUse">
            <stop stop-color="white" stop-opacity="0.3"/>
            <stop offset="1" stop-color="white" stop-opacity="0"/>
        </linearGradient>
        <clipPath id="clip0_13_599">
            <rect width="1349.53" height="633.15" fill="white"/>
        </clipPath>
    </defs>
</svg>
